<svg width="21" height="21" viewBox="0 0 21 21" fill="none" xmlns="http://www.w3.org/2000/svg">
<g clip-path="url(#clip0_5268_2310)">
<path d="M20.3279 11.3965C20.3279 5.87367 15.8507 1.39648 10.3279 1.39648C4.80507 1.39648 0.327881 5.87367 0.327881 11.3965C0.327881 16.3877 3.98476 20.5248 8.76538 21.275V14.2871H6.22632V11.3965H8.76538V9.19336C8.76538 6.68711 10.2584 5.30273 12.5426 5.30273C13.6366 5.30273 14.781 5.49805 14.781 5.49805V7.95898H13.5201C12.2778 7.95898 11.8904 8.72984 11.8904 9.5207V11.3965H14.6638L14.2205 14.2871H11.8904V21.275C16.671 20.5248 20.3279 16.3878 20.3279 11.3965Z" fill="#1877F2"/>
<path d="M14.2205 14.2871L14.6638 11.3965H11.8904V9.5207C11.8904 8.72977 12.2778 7.95898 13.5201 7.95898H14.781V5.49805C14.781 5.49805 13.6366 5.30273 12.5425 5.30273C10.2583 5.30273 8.76538 6.68711 8.76538 9.19336V11.3965H6.22632V14.2871H8.76538V21.275C9.28227 21.356 9.80468 21.3966 10.3279 21.3965C10.8511 21.3966 11.3735 21.356 11.8904 21.275V14.2871H14.2205Z" fill="white"/>
</g>
<defs>
<clipPath id="clip0_5268_2310">
<rect width="20" height="19.8492" fill="white" transform="translate(0.327881 0.244141)"/>
</clipPath>
</defs>
</svg>
