<svg width="21" height="21" viewBox="0 0 21 21" fill="none" xmlns="http://www.w3.org/2000/svg">
<g clip-path="url(#clip0_5268_2313)">
<path d="M15.6404 1.39648H5.01538C2.42655 1.39648 0.327881 3.49515 0.327881 6.08398V16.709C0.327881 19.2978 2.42655 21.3965 5.01538 21.3965H15.6404C18.2292 21.3965 20.3279 19.2978 20.3279 16.709V6.08398C20.3279 3.49515 18.2292 1.39648 15.6404 1.39648Z" fill="url(#paint0_radial_5268_2313)"/>
<path d="M15.6404 1.39648H5.01538C2.42655 1.39648 0.327881 3.49515 0.327881 6.08398V16.709C0.327881 19.2978 2.42655 21.3965 5.01538 21.3965H15.6404C18.2292 21.3965 20.3279 19.2978 20.3279 16.709V6.08398C20.3279 3.49515 18.2292 1.39648 15.6404 1.39648Z" fill="url(#paint1_radial_5268_2313)"/>
<path d="M10.3286 3.58398C8.20687 3.58398 7.94054 3.59328 7.10726 3.63117C6.27554 3.6693 5.7078 3.80094 5.21108 3.99414C4.69718 4.19367 4.26132 4.46062 3.8271 4.895C3.39249 5.3293 3.12554 5.76516 2.92538 6.27883C2.73163 6.7757 2.59983 7.34367 2.56241 8.175C2.52515 9.00836 2.51538 9.27477 2.51538 11.3966C2.51538 13.5184 2.52476 13.7838 2.56257 14.6171C2.60085 15.4488 2.73249 16.0166 2.92554 16.5133C3.12522 17.0272 3.39218 17.463 3.82655 17.8973C4.26069 18.3319 4.69655 18.5995 5.21007 18.799C5.70718 18.9922 6.27499 19.1238 7.10655 19.162C7.93991 19.1998 8.20601 19.2091 10.3276 19.2091C12.4496 19.2091 12.7151 19.1998 13.5483 19.162C14.3801 19.1238 14.9484 18.9922 15.4455 18.799C15.9592 18.5995 16.3944 18.3319 16.8285 17.8973C17.2631 17.463 17.53 17.0272 17.7302 16.5135C17.9223 16.0166 18.0541 15.4487 18.0932 14.6173C18.1306 13.784 18.1404 13.5184 18.1404 11.3966C18.1404 9.27477 18.1306 9.00852 18.0932 8.17516C18.0541 7.34344 17.9223 6.77578 17.7302 6.27906C17.53 5.76516 17.2631 5.3293 16.8285 4.895C16.394 4.46047 15.9594 4.19352 15.4451 3.99422C14.947 3.80094 14.379 3.66922 13.5473 3.63117C12.7139 3.59328 12.4486 3.58398 10.3262 3.58398H10.3286ZM9.62772 4.99187C9.83577 4.99156 10.0679 4.99187 10.3286 4.99187C12.4146 4.99187 12.6618 4.99938 13.4855 5.0368C14.2473 5.07164 14.6607 5.19891 14.9361 5.30586C15.3007 5.44742 15.5606 5.61672 15.8339 5.89023C16.1073 6.16367 16.2766 6.42406 16.4185 6.78867C16.5255 7.06367 16.6529 7.47711 16.6876 8.23883C16.725 9.06242 16.7331 9.30977 16.7331 11.3948C16.7331 13.4798 16.725 13.7272 16.6876 14.5507C16.6527 15.3124 16.5255 15.7259 16.4185 16.0009C16.2769 16.3655 16.1073 16.6252 15.8339 16.8984C15.5605 17.1719 15.3008 17.3411 14.9361 17.4827C14.661 17.5902 14.2473 17.7171 13.4855 17.752C12.6619 17.7894 12.4146 17.7975 10.3286 17.7975C8.24249 17.7975 7.99522 17.7894 7.17171 17.752C6.40999 17.7168 5.99655 17.5895 5.72093 17.4826C5.3564 17.3409 5.09593 17.1717 4.82249 16.8983C4.54905 16.6248 4.37983 16.3651 4.23788 16.0003C4.13093 15.7252 4.00351 15.3118 3.96882 14.5501C3.9314 13.7265 3.9239 13.4791 3.9239 11.3928C3.9239 9.30648 3.9314 9.06047 3.96882 8.23688C4.00366 7.47516 4.13093 7.06172 4.23788 6.78633C4.37952 6.42172 4.54905 6.16133 4.82257 5.88789C5.09608 5.61445 5.3564 5.44516 5.72101 5.30328C5.9964 5.19586 6.40999 5.06891 7.17171 5.03391C7.89241 5.00133 8.17171 4.99156 9.62772 4.98992V4.99187ZM14.4989 6.28906C13.9813 6.28906 13.5614 6.70859 13.5614 7.22625C13.5614 7.74383 13.9813 8.16375 14.4989 8.16375C15.0165 8.16375 15.4364 7.74383 15.4364 7.22625C15.4364 6.70867 15.0165 6.28875 14.4989 6.28875V6.28906ZM10.3286 7.38445C8.11296 7.38445 6.31655 9.18086 6.31655 11.3966C6.31655 13.6123 8.11296 15.4078 10.3286 15.4078C12.5443 15.4078 14.3401 13.6123 14.3401 11.3966C14.3401 9.18094 12.5441 7.38445 10.3284 7.38445H10.3286ZM10.3286 8.79234C11.7668 8.79234 12.9328 9.9582 12.9328 11.3966C12.9328 12.8348 11.7668 14.0008 10.3286 14.0008C8.89038 14.0008 7.72444 12.8348 7.72444 11.3966C7.72444 9.9582 8.8903 8.79234 10.3286 8.79234Z" fill="white"/>
</g>
<defs>
<radialGradient id="paint0_radial_5268_2313" cx="0" cy="0" r="1" gradientUnits="userSpaceOnUse" gradientTransform="translate(5.64038 22.9369) rotate(-90) scale(19.8215 18.4355)">
<stop stop-color="#FFDD55"/>
<stop offset="0.1" stop-color="#FFDD55"/>
<stop offset="0.5" stop-color="#FF543E"/>
<stop offset="1" stop-color="#C837AB"/>
</radialGradient>
<radialGradient id="paint1_radial_5268_2313" cx="0" cy="0" r="1" gradientUnits="userSpaceOnUse" gradientTransform="translate(-3.0222 2.83719) rotate(78.681) scale(8.86031 36.5225)">
<stop stop-color="#3771C8"/>
<stop offset="0.128" stop-color="#3771C8"/>
<stop offset="1" stop-color="#6600FF" stop-opacity="0"/>
</radialGradient>
<clipPath id="clip0_5268_2313">
<rect width="20" height="19.8492" fill="white" transform="translate(0.327881 0.244141)"/>
</clipPath>
</defs>
</svg>
