<svg width="21" height="21" viewBox="0 0 21 21" fill="none" xmlns="http://www.w3.org/2000/svg">
<g clip-path="url(#clip0_5268_2318)">
<path d="M15.6404 1.39648H5.01538C2.42655 1.39648 0.327881 3.49515 0.327881 6.08398V16.709C0.327881 19.2978 2.42655 21.3965 5.01538 21.3965H15.6404C18.2292 21.3965 20.3279 19.2978 20.3279 16.709V6.08398C20.3279 3.49515 18.2292 1.39648 15.6404 1.39648Z" fill="white"/>
<path d="M15.6404 1.39648H5.01538C2.42655 1.39648 0.327881 3.49515 0.327881 6.08398V16.709C0.327881 19.2978 2.42655 21.3965 5.01538 21.3965H15.6404C18.2292 21.3965 20.3279 19.2978 20.3279 16.709V6.08398C20.3279 3.49515 18.2292 1.39648 15.6404 1.39648Z" fill="#0A66C2"/>
<path d="M14.7587 18.4031H17.0455C17.1283 18.4031 17.2078 18.3702 17.2664 18.3116C17.325 18.253 17.3579 18.1736 17.358 18.0907L17.3591 13.2593C17.3591 10.7341 16.815 8.79305 13.864 8.79305C12.7422 8.75133 11.6843 9.32961 11.1134 10.2952C11.1106 10.2999 11.1064 10.3036 11.1013 10.3056C11.0963 10.3077 11.0907 10.308 11.0854 10.3066C11.0801 10.3052 11.0755 10.302 11.0722 10.2977C11.0688 10.2934 11.067 10.2881 11.0669 10.2827V9.33867C11.0669 9.25579 11.034 9.17631 10.9754 9.1177C10.9168 9.0591 10.8373 9.02617 10.7544 9.02617H8.58436C8.50148 9.02617 8.422 9.0591 8.36339 9.1177C8.30479 9.17631 8.27186 9.25579 8.27186 9.33867V18.0902C8.27186 18.1731 8.30479 18.2526 8.36339 18.3112C8.422 18.3698 8.50148 18.4027 8.58436 18.4027H10.8709C10.9538 18.4027 11.0333 18.3698 11.0919 18.3112C11.1505 18.2526 11.1834 18.1731 11.1834 18.0902V13.7642C11.1834 12.541 11.4155 11.3564 12.9319 11.3564C14.4269 11.3564 14.4462 12.7561 14.4462 13.8434V18.0906C14.4462 18.1735 14.4792 18.253 14.5378 18.3116C14.5964 18.3702 14.6759 18.4031 14.7587 18.4031ZM3.29663 6.05492C3.29663 6.9818 4.05968 7.74445 4.98663 7.74445C5.91335 7.74437 6.67593 6.98125 6.67593 6.05453C6.67577 5.12781 5.91312 4.36523 4.98632 4.36523C4.05929 4.36523 3.29663 5.12805 3.29663 6.05492ZM3.8403 18.4031H6.12991C6.21279 18.4031 6.29228 18.3702 6.35088 18.3116C6.40949 18.253 6.44241 18.1735 6.44241 18.0906V9.33867C6.44241 9.25579 6.40949 9.17631 6.35088 9.1177C6.29228 9.0591 6.21279 9.02617 6.12991 9.02617H3.8403C3.75742 9.02617 3.67794 9.0591 3.61933 9.1177C3.56073 9.17631 3.5278 9.25579 3.5278 9.33867V18.0906C3.5278 18.1735 3.56073 18.253 3.61933 18.3116C3.67794 18.3702 3.75742 18.4031 3.8403 18.4031Z" fill="white"/>
</g>
<defs>
<clipPath id="clip0_5268_2318">
<rect width="20" height="19.8492" fill="white" transform="translate(0.327881 0.244141)"/>
</clipPath>
</defs>
</svg>
