<svg width="18" height="20" viewBox="0 0 18 20" fill="none" xmlns="http://www.w3.org/2000/svg">
<g clip-path="url(#clip0_5268_2355)">
<path d="M12.7407 7.12697C13.9449 7.98737 15.4202 8.49361 17.0135 8.49361V5.4292C16.7119 5.42932 16.4112 5.39785 16.1162 5.33532V7.74747C14.523 7.74747 13.0479 7.24128 11.8434 6.38095V12.6346C11.8434 15.763 9.30597 18.2989 6.17618 18.2989C5.00837 18.2989 3.9229 17.9461 3.02124 17.3408C4.05036 18.3926 5.48554 19.045 7.07326 19.045C10.2033 19.045 12.7408 16.5091 12.7408 13.3806V7.12697H12.7407ZM13.8477 4.03535C13.2322 3.36334 12.8281 2.49489 12.7407 1.53475V1.14062H11.8903C12.1044 2.36091 12.8345 3.40345 13.8477 4.03535ZM5.00083 14.9402C4.65695 14.4897 4.47108 13.9384 4.47195 13.3716C4.47195 11.9408 5.63254 10.7807 7.06443 10.7807C7.33123 10.7805 7.59647 10.8215 7.85081 10.9021V7.76913C7.55359 7.72845 7.25366 7.7111 6.95385 7.71749V10.156C6.69939 10.0754 6.43402 10.0344 6.16709 10.0347C4.73526 10.0347 3.57474 11.1947 3.57474 12.6256C3.57474 13.6375 4.15481 14.5135 5.00083 14.9402Z" fill="#FF004F"/>
<path d="M11.8431 6.38089C13.0476 7.24122 14.5226 7.7474 16.1159 7.7474V5.33526C15.2265 5.1459 14.4392 4.68144 13.8473 4.03535C12.8341 3.40338 12.1041 2.36085 11.89 1.14062H9.65648V13.3804C9.65139 14.8074 8.4928 15.9627 7.06401 15.9627C6.22211 15.9627 5.47409 15.5616 5.00041 14.9402C4.15452 14.5135 3.57439 13.6374 3.57439 12.6257C3.57439 11.1949 4.73491 10.0347 6.16673 10.0347C6.44106 10.0347 6.70547 10.0774 6.9535 10.1561V7.71755C3.87864 7.78106 1.40576 10.2922 1.40576 13.3805C1.40576 14.9222 2.02155 16.3198 3.02101 17.341C3.92267 17.946 5.00808 18.299 6.17595 18.299C9.30581 18.299 11.8432 15.763 11.8432 12.6346L11.8431 6.38089Z" fill="black"/>
<path d="M16.1159 5.33708V4.68499C15.3139 4.68616 14.5278 4.46168 13.8474 4.03723C14.4497 4.69628 15.2428 5.15077 16.1159 5.3372M11.89 1.14244C11.8696 1.02585 11.854 0.908472 11.8431 0.79061V0.396484H8.75907V12.6364C8.75417 14.0632 7.59558 15.2186 6.16672 15.2186C5.76166 15.2192 5.36212 15.1245 5.0004 14.9422C5.47409 15.5635 6.22211 15.9645 7.064 15.9645C8.49273 15.9645 9.65144 14.8093 9.65647 13.3824V1.14251L11.89 1.14244ZM6.95369 7.71937V7.02505C6.69598 6.98987 6.43617 6.97225 6.17607 6.97231C3.04589 6.97231 0.508545 9.50831 0.508545 12.6364C0.508545 14.5976 1.50575 16.326 3.02114 17.3427C2.02167 16.3216 1.40588 14.9239 1.40588 13.3823C1.40588 10.294 3.8787 7.78287 6.95369 7.71937Z" fill="#00F2EA"/>
</g>
<defs>
<clipPath id="clip0_5268_2355">
<rect width="16.5052" height="18.6973" fill="white" transform="translate(0.508545 0.396484)"/>
</clipPath>
</defs>
</svg>
